<svg width="31" height="30" viewBox="0 0 31 30" fill="none" xmlns="http://www.w3.org/2000/svg">
<path d="M15.7 15C14.325 15 13.1479 14.5104 12.1687 13.5312C11.1895 12.5521 10.7 11.375 10.7 10C10.7 8.625 11.1895 7.44792 12.1687 6.46875C13.1479 5.48958 14.325 5 15.7 5C17.075 5 18.252 5.48958 19.2312 6.46875C20.2104 7.44792 20.7 8.625 20.7 10C20.7 11.375 20.2104 12.5521 19.2312 13.5312C18.252 14.5104 17.075 15 15.7 15ZM5.69995 25V21.5C5.69995 20.7917 5.88224 20.1406 6.24683 19.5469C6.61141 18.9531 7.09578 18.5 7.69995 18.1875C8.99162 17.5417 10.3041 17.0573 11.6375 16.7344C12.9708 16.4115 14.325 16.25 15.7 16.25C17.075 16.25 18.4291 16.4115 19.7625 16.7344C21.0958 17.0573 22.4083 17.5417 23.7 18.1875C24.3041 18.5 24.7885 18.9531 25.1531 19.5469C25.5177 20.1406 25.7 20.7917 25.7 21.5V25H5.69995ZM8.19995 22.5H23.2V21.5C23.2 21.2708 23.1427 21.0625 23.0281 20.875C22.9135 20.6875 22.7625 20.5417 22.575 20.4375C21.45 19.875 20.3145 19.4531 19.1687 19.1719C18.0229 18.8906 16.8666 18.75 15.7 18.75C14.5333 18.75 13.377 18.8906 12.2312 19.1719C11.0854 19.4531 9.94995 19.875 8.82495 20.4375C8.63745 20.5417 8.48641 20.6875 8.37183 20.875C8.25724 21.0625 8.19995 21.2708 8.19995 21.5V22.5ZM15.7 12.5C16.3875 12.5 16.976 12.2552 17.4656 11.7656C17.9552 11.276 18.2 10.6875 18.2 10C18.2 9.3125 17.9552 8.72396 17.4656 8.23438C16.976 7.74479 16.3875 7.5 15.7 7.5C15.0125 7.5 14.4239 7.74479 13.9343 8.23438C13.4447 8.72396 13.2 9.3125 13.2 10C13.2 10.6875 13.4447 11.276 13.9343 11.7656C14.4239 12.2552 15.0125 12.5 15.7 12.5Z" fill="white"/>
</svg>
