<svg width="9" height="30" viewBox="0 0 9 30" fill="none" xmlns="http://www.w3.org/2000/svg">
<path d="M4.49998 10.6452C6.90724 10.6452 8.85482 12.5927 8.85482 15C8.85482 17.4073 6.90724 19.3548 4.49998 19.3548C2.09272 19.3548 0.145142 17.4073 0.145142 15C0.145142 12.5927 2.09272 10.6452 4.49998 10.6452ZM0.145142 4.35484C0.145142 6.7621 2.09272 8.70968 4.49998 8.70968C6.90724 8.70968 8.85482 6.7621 8.85482 4.35484C8.85482 1.94758 6.90724 0 4.49998 0C2.09272 0 0.145142 1.94758 0.145142 4.35484ZM0.145142 25.6452C0.145142 28.0524 2.09272 30 4.49998 30C6.90724 30 8.85482 28.0524 8.85482 25.6452C8.85482 23.2379 6.90724 21.2903 4.49998 21.2903C2.09272 21.2903 0.145142 23.2379 0.145142 25.6452Z" fill="white"/>
</svg>
