<svg width="34" height="30" viewBox="0 0 34 30" fill="none" xmlns="http://www.w3.org/2000/svg">
<path d="M17.1001 0C13.0226 0 9.71729 3.30527 9.71729 7.38281C9.71729 10.6793 14.5425 16.6875 16.3911 18.8684C16.7655 19.3102 17.4353 19.3102 17.8091 18.8684C19.6577 16.6875 24.4829 10.6793 24.4829 7.38281C24.4829 3.30527 21.1776 0 17.1001 0ZM17.1001 9.84375C15.7407 9.84375 14.6392 8.74219 14.6392 7.38281C14.6392 6.02344 15.7407 4.92188 17.1001 4.92188C18.4595 4.92188 19.561 6.02344 19.561 7.38281C19.561 8.74219 18.4595 9.84375 17.1001 9.84375ZM1.404 12.6533C1.05606 12.7925 0.757791 13.0327 0.547662 13.343C0.337532 13.6533 0.225181 14.0194 0.225098 14.3941L0.225098 29.0613C0.225098 29.7246 0.894824 30.1781 1.51064 29.932L9.6001 26.25V12.593C9.08213 11.6566 8.6585 10.7449 8.35498 9.87305L1.404 12.6533ZM17.1001 21.0744C16.2757 21.0744 15.4958 20.7123 14.9608 20.0807C13.8089 18.7213 12.5837 17.1732 11.4751 15.5854V26.2494L22.7251 29.9994V15.5859C21.6165 17.1732 20.3919 18.7219 19.2394 20.0812C18.7044 20.7123 17.9245 21.0744 17.1001 21.0744ZM32.6896 9.44297L24.6001 13.125V30L32.7962 26.7217C33.1442 26.5826 33.4425 26.3424 33.6526 26.0321C33.8628 25.7218 33.9751 25.3556 33.9751 24.9809V10.3137C33.9751 9.65039 33.3054 9.19688 32.6896 9.44297Z" fill="white"/>
</svg>
