<svg width="31" height="32" viewBox="0 0 31 32" fill="none" xmlns="http://www.w3.org/2000/svg">
<path d="M5.60925 4.11194C4.9907 4.11148 4.37813 4.23298 3.80658 4.46948C3.23502 4.70597 2.7157 5.05283 2.27832 5.49021C1.84094 5.92759 1.49408 6.44691 1.25758 7.01846C1.02107 7.59001 0.899574 8.20258 0.900026 8.82113C0.900026 12.3531 5.60925 17.5668 5.60925 17.5668C5.60925 17.5668 10.3185 12.3531 10.3185 8.82113C10.3189 8.20258 10.1974 7.59001 9.96091 7.01846C9.72441 6.44691 9.37755 5.9276 8.94017 5.49022C8.50279 5.05284 7.98347 4.70598 7.41192 4.46948C6.84037 4.23298 6.2278 4.11149 5.60925 4.11194ZM5.60925 10.503C5.27661 10.503 4.95144 10.4044 4.67486 10.2196C4.39828 10.0348 4.18271 9.77209 4.05541 9.46477C3.92811 9.15745 3.89481 8.81929 3.9597 8.49304C4.02459 8.16679 4.18477 7.86711 4.41998 7.63189C4.6552 7.39668 4.95487 7.2365 5.28112 7.1716C5.60737 7.1067 5.94554 7.14001 6.25286 7.2673C6.56018 7.3946 6.82285 7.61016 7.00766 7.88674C7.19247 8.16332 7.29111 8.48849 7.29111 8.82113C7.29095 9.26714 7.11371 9.69484 6.79833 10.0102C6.48295 10.3256 6.05526 10.5028 5.60925 10.503Z" fill="white"/>
<path d="M29.3447 14.8565V8.05694C29.3337 7.34233 29.2243 6.63257 29.0212 5.94734C28.5008 4.13855 27.3518 2.57492 25.7811 1.53788C24.2104 0.500843 22.3211 0.0585084 20.4533 0.290493C18.5855 0.522478 16.8618 1.41355 15.5926 2.80331C14.3233 4.19308 13.5917 5.99027 13.5296 7.87141V8.26215L13.5146 9.63844V23.9067L13.5148 25.3769H13.5068L13.5072 25.4429C13.5072 26.2818 13.174 27.0863 12.5808 27.6795C11.9876 28.2726 11.1831 28.6059 10.3442 28.6059C9.50536 28.6059 8.70084 28.2726 8.10766 27.6795C7.51448 27.0863 7.18124 26.2818 7.18124 25.4429C7.18124 25.423 7.18674 25.4046 7.18712 25.3848H7.18131V22.3114H4.01831V25.4744H4.02147C4.02886 27.1472 4.69882 28.7489 5.88465 29.9288C7.07048 31.1087 8.67555 31.7707 10.3484 31.7697C12.0212 31.7687 13.6255 31.1049 14.8099 29.9236C15.9944 28.7423 16.6625 27.1398 16.6679 25.4669H16.6703V23.914H16.6776V11.2199L16.6926 8.26206V7.8715C16.7417 6.62918 17.2762 5.4557 18.1813 4.60333C19.0865 3.75097 20.2899 3.28779 21.5329 3.31337C22.776 3.33895 23.9593 3.85125 24.8286 4.74012C25.6979 5.629 26.1837 6.82348 26.1816 8.06677V14.8282C25.576 15.1709 25.1004 15.7039 24.8285 16.3444C24.5567 16.985 24.5037 17.6973 24.6779 18.371C24.8521 19.0447 25.2437 19.6421 25.7919 20.0706C26.3402 20.4991 27.0146 20.7347 27.7104 20.7409C28.4062 20.7472 29.0846 20.5236 29.6405 20.105C30.1964 19.6864 30.5986 19.0961 30.7848 18.4256C30.971 17.7551 30.9308 17.042 30.6704 16.3967C30.41 15.7514 29.9441 15.21 29.3447 14.8565Z" fill="white"/>
</svg>
