<svg width="91" height="79" viewBox="0 0 91 79" fill="none" xmlns="http://www.w3.org/2000/svg">
<path d="M66.4401 19.6504L64.7184 20.6444L46.2974 15.771C45.2819 15.5025 44.1647 15.4576 43.0284 15.6394C41.8921 15.8212 40.7658 16.2252 39.7329 16.8214L16.7146 30.111C13.8986 31.7369 12.1533 34.5614 12.3074 37.2439L13.1785 50.6587C10.5655 52.9817 9.59127 56.3738 11.0625 58.922L16.5937 68.5024C17.0303 69.2586 18.1544 69.4262 19.1056 68.877L24.2708 65.8949C26.8892 70.4302 33.6368 71.4364 39.3421 68.1425C45.0475 64.8485 47.5498 58.5018 44.9314 53.9665L58.7051 46.0142C61.3235 50.5495 68.0711 51.5558 73.7764 48.2618C79.4818 44.9678 81.9841 38.6211 79.3657 34.0858L84.5308 31.1037C85.4821 30.5545 85.8989 29.4972 85.4624 28.7411L81.5115 21.8979C78.893 17.3626 72.1454 16.3564 66.4401 19.6504ZM36.9716 64.0366C34.1232 65.6811 30.7432 65.177 29.4359 62.9128C28.1287 60.6486 29.3822 57.4693 32.2305 55.8248C35.0789 54.1803 38.459 54.6844 39.7662 56.9486C41.0735 59.2128 39.82 62.3921 36.9716 64.0366ZM32.8667 39.034L20.4843 46.183L19.8753 35.5855L28.1256 30.8223L32.8667 39.034ZM38.0318 36.0519L33.2907 27.8402L42.8936 22.2959L55.8989 25.7363L38.0318 36.0519ZM71.4059 44.1559C68.5575 45.8004 65.1775 45.2964 63.8702 43.0321C62.563 40.7679 63.8165 37.5887 66.6648 35.9441C69.5132 34.2996 72.8933 34.8037 74.2005 37.0679C75.5078 39.3322 74.2543 42.5114 71.4059 44.1559Z" fill="#06193F"/>
</svg>
